<svg width="1349" height="290" viewBox="0 0 1349 290" fill="none" xmlns="http://www.w3.org/2000/svg">
<g filter="url(#filter0_di)">
<path d="M104.25 28.7674C132.536 28.7674 154.878 33.9947 171.275 44.4492C186.648 54.2888 198.537 67.9207 206.94 85.3449C214.934 101.744 218.931 119.476 218.931 138.54C218.931 172.979 209.4 200.55 190.338 221.254C170.66 242.573 143.707 253.233 109.476 253.233H62.7427C49.8295 253.233 40.8107 251.08 35.6864 246.775C30.5621 242.266 28 233.656 28 220.947V64.7433C28 51.4189 30.5621 42.0918 35.6864 36.762C40.8107 31.4323 50.0345 28.7674 63.3576 28.7674H104.25ZM79.038 205.88H102.405C142.989 205.88 163.281 183.331 163.281 138.233C163.281 97.0294 142.682 76.4278 101.482 76.4278H79.038V205.88Z" fill="white"/>
<path d="M356.31 28.7674C380.496 28.7674 392.59 36.762 392.59 52.7513C392.59 68.5356 380.496 76.4278 356.31 76.4278H314.495V116.401H350.468C374.655 116.401 386.748 124.293 386.748 140.078C386.748 155.862 374.655 163.754 350.468 163.754H314.495V205.88H357.847C382.034 205.88 394.127 213.772 394.127 229.556C394.127 245.34 382.034 253.233 357.847 253.233H298.2C285.287 253.233 276.268 251.08 271.144 246.775C266.02 242.266 263.457 233.656 263.457 220.947V64.7433C263.457 51.4189 266.02 42.0918 271.144 36.762C276.268 31.4323 285.492 28.7674 298.815 28.7674H356.31Z" fill="white"/>
<path d="M466.865 76.4278C448.417 76.4278 436.939 75.9153 432.429 74.8904C418.491 72.0205 411.522 64.6408 411.522 52.7513C411.522 36.762 423.718 28.7674 448.11 28.7674H536.965C561.152 28.7674 573.245 36.762 573.245 52.7513C573.245 64.6408 566.276 72.0205 552.338 74.8904C547.829 75.9153 536.35 76.4278 517.903 76.4278V219.717C517.903 243.906 509.396 256 492.384 256C475.371 256 466.865 243.906 466.865 219.717V76.4278Z" fill="white"/>
<path d="M591.801 141.307C591.801 107.689 601.229 80.3226 620.087 59.2085C639.559 37.0695 665.898 26 699.103 26C732.514 26 758.955 36.967 778.428 58.9011C797.285 80.0151 806.714 107.484 806.714 141.307C806.714 174.926 797.285 202.292 778.428 223.406C758.75 245.135 732.309 256 699.103 256C665.898 256 639.559 245.033 620.087 223.099C601.229 202.19 591.801 174.926 591.801 141.307ZM645.913 141.922C645.913 160.372 650.115 175.643 658.519 187.738C667.948 201.882 681.476 208.955 699.103 208.955C716.731 208.955 730.362 201.985 739.995 188.045C748.399 175.746 752.601 160.372 752.601 141.922C752.601 122.858 748.604 107.176 740.61 94.877C730.977 80.3226 717.141 73.0455 699.103 73.0455C681.066 73.0455 667.333 80.3226 657.904 94.877C649.91 107.176 645.913 122.858 645.913 141.922Z" fill="white"/>
<path d="M844.296 256C838.556 256 833.227 253.745 828.308 249.235C823.593 244.725 821.236 239.601 821.236 233.861C821.236 226.891 825.028 218.282 832.612 208.032L887.032 134.235L846.14 74.5829C838.556 63.5134 834.764 55.1087 834.764 49.369C834.764 42.3993 837.122 36.762 841.836 32.4572C846.55 28.1524 852.392 26 859.361 26C868.38 26 877.194 32.5597 885.802 45.6791L916.856 92.7246L949.446 45.0642C958.055 32.3547 967.176 26 976.81 26C982.754 26 987.981 28.2549 992.49 32.7647C997 37.0695 999.254 42.1943 999.254 48.139C999.254 54.4938 995.36 63.3084 987.571 74.5829L946.372 134.235L1001.1 208.34C1008.89 218.794 1012.78 227.404 1012.78 234.168C1012.78 240.113 1010.43 245.238 1005.71 249.543C1001 253.848 995.565 256 989.416 256C979.782 256 970.558 249.748 961.744 237.243L916.241 173.286L871.044 236.936C862.026 249.645 853.109 256 844.296 256Z" fill="white"/>
<path d="M1095.72 219.717C1095.72 243.906 1087.21 256 1070.2 256C1053.19 256 1044.68 243.906 1044.68 219.717V62.2834C1044.68 38.0945 1053.19 26 1070.2 26C1087.21 26 1095.72 38.0945 1095.72 62.2834V219.717Z" fill="white"/>
<path d="M1247.82 256C1214.82 256 1188.48 245.033 1168.81 223.099C1150.15 201.985 1140.83 174.721 1140.83 141.307C1140.83 108.509 1150.46 81.3476 1169.73 59.8235C1189.81 37.2745 1216.05 26 1248.44 26C1258.69 26 1267.6 26.9225 1275.19 28.7674C1284.82 31.0223 1293.22 34.5071 1300.4 39.2219C1309.62 45.5766 1314.23 52.7513 1314.23 60.746C1314.23 66.6907 1312.18 71.918 1308.08 76.4278C1303.98 80.7326 1298.96 82.885 1293.02 82.885C1287.89 82.885 1281.54 81.4501 1273.96 78.5802C1266.37 75.5053 1257.97 73.9679 1248.74 73.9679C1230.91 73.9679 1217.18 81.2451 1207.54 95.7995C1199.14 108.304 1194.94 123.883 1194.94 142.537C1194.94 161.397 1199.35 176.668 1208.16 188.353C1218 201.472 1232.04 208.032 1250.28 208.032C1258.28 208.032 1267.19 206.187 1277.03 202.497C1286.87 198.807 1293.43 196.963 1296.71 196.963C1302.45 196.963 1307.26 199.217 1311.16 203.727C1315.05 208.237 1317 213.362 1317 219.102C1317 223.816 1315.36 228.429 1312.08 232.939C1300.81 248.313 1279.39 256 1247.82 256Z" fill="white"/>
</g>
<defs>
<filter id="filter0_di" x="0" y="0" width="1349" height="290" filterUnits="userSpaceOnUse" color-interpolation-filters="sRGB">
<feFlood flood-opacity="0" result="BackgroundImageFix"/>
<feColorMatrix in="SourceAlpha" type="matrix" values="0 0 0 0 0 0 0 0 0 0 0 0 0 0 0 0 0 0 127 0"/>
<feOffset dx="2" dy="4"/>
<feGaussianBlur stdDeviation="15"/>
<feColorMatrix type="matrix" values="0 0 0 0 0.025 0 0 0 0 0.025 0 0 0 0 0.025 0 0 0 0.4 0"/>
<feBlend mode="normal" in2="BackgroundImageFix" result="effect1_dropShadow"/>
<feBlend mode="normal" in="SourceGraphic" in2="effect1_dropShadow" result="shape"/>
<feColorMatrix in="SourceAlpha" type="matrix" values="0 0 0 0 0 0 0 0 0 0 0 0 0 0 0 0 0 0 127 0" result="hardAlpha"/>
<feOffset dy="4"/>
<feGaussianBlur stdDeviation="2"/>
<feComposite in2="hardAlpha" operator="arithmetic" k2="-1" k3="1"/>
<feColorMatrix type="matrix" values="0 0 0 0 0.4375 0 0 0 0 0.4375 0 0 0 0 0.4375 0 0 0 0.7 0"/>
<feBlend mode="normal" in2="shape" result="effect2_innerShadow"/>
</filter>
</defs>
</svg>
